<svg xmlns="http://www.w3.org/2000/svg" width="1206" height="360" viewBox="0 0 1206 360" version="1.1"><path d="M 18 276.500 L 18 284 28 284 L 38 284 38 276.500 L 38 269 28 269 L 18 269 18 276.500" stroke="none" fill="#e8b800" fill-rule="evenodd"/><path d="M 38 276.500 L 38 284 129.500 284 L 221 284 221 276.500 L 221 269 129.500 269 L 38 269 38 276.500" stroke="none" fill="#fac600" fill-rule="evenodd"/><path d="M 55 185.500 L 55 211 66.250 210.825 C 72.438 210.729, 75.588 210.478, 73.250 210.268 L 69 209.885 69 184.943 L 69 160 62 160 L 55 160 55 185.500 M 95.992 168.205 C 95.721 172.992, 95.858 176.550, 96.295 176.110 C 96.732 175.670, 96.953 171.753, 96.786 167.405 L 96.483 159.500 95.992 168.205 M 103.287 210.740 C 106.469 210.939, 111.419 210.937, 114.287 210.736 C 117.154 210.535, 114.550 210.372, 108.500 210.374 C 102.450 210.376, 100.104 210.541, 103.287 210.740 M 134.607 212.582 C 134.273 213.452, 134 226.502, 134 241.582 L 134 269 141.500 269 L 149 269 149 240 L 149 211 142.107 211 C 136.744 211, 135.079 211.351, 134.607 212.582" stroke="none" fill="#ffbd86" fill-rule="evenodd"/><path d="M 55 185.500 L 55 211 66.250 210.825 C 72.438 210.729, 75.588 210.478, 73.250 210.268 L 69 209.885 69 184.943 L 69 160 62 160 L 55 160 55 185.500 M 95.992 168.205 C 95.721 172.992, 95.858 176.550, 96.295 176.110 C 96.732 175.670, 96.953 171.753, 96.786 167.405 L 96.483 159.500 95.992 168.205 M 103.287 210.740 C 106.469 210.939, 111.419 210.937, 114.287 210.736 C 117.154 210.535, 114.550 210.372, 108.500 210.374 C 102.450 210.376, 100.104 210.541, 103.287 210.740 M 134.607 212.582 C 134.273 213.452, 134 226.502, 134 241.582 L 134 269 141.500 269 L 149 269 149 240 L 149 211 142.107 211 C 136.744 211, 135.079 211.351, 134.607 212.582" stroke="none" fill="#ffbd86" fill-rule="evenodd"/><path d="M 278.250 121.728 L 289 122.068 289 201.500 L 289 280.932 278.498 281.269 L 267.996 281.607 278.748 281.553 L 289.500 281.500 289.500 201.500 L 289.500 121.500 278.500 121.444 L 267.500 121.388 278.250 121.728 M 821.287 121.740 C 824.469 121.939, 829.419 121.937, 832.287 121.736 C 835.154 121.535, 832.550 121.372, 826.500 121.374 C 820.450 121.376, 818.104 121.541, 821.287 121.740 M 119.434 185.500 C 119.433 199.250, 119.574 205.014, 119.747 198.308 C 119.919 191.603, 119.920 180.353, 119.748 173.308 C 119.576 166.264, 119.434 171.750, 119.434 185.500 M 172.750 186.747 C 180.037 186.918, 191.963 186.918, 199.250 186.747 C 206.537 186.577, 200.575 186.437, 186 186.437 C 171.425 186.437, 165.463 186.577, 172.750 186.747 M 594.250 188.746 C 600.163 188.923, 609.837 188.923, 615.750 188.746 C 621.663 188.569, 616.825 188.425, 605 188.425 C 593.175 188.425, 588.337 188.569, 594.250 188.746 M 1130.250 188.747 C 1137.263 188.919, 1148.737 188.919, 1155.750 188.747 C 1162.763 188.575, 1157.025 188.435, 1143 188.435 C 1128.975 188.435, 1123.237 188.575, 1130.250 188.747 M 575.426 221.500 C 575.427 233.600, 575.571 238.413, 575.747 232.195 C 575.923 225.977, 575.922 216.077, 575.746 210.195 C 575.569 204.313, 575.425 209.400, 575.426 221.500 M 1136.304 201.747 C 1142.247 201.924, 1151.697 201.923, 1157.304 201.745 C 1162.912 201.567, 1158.050 201.422, 1146.500 201.423 C 1134.950 201.424, 1130.362 201.570, 1136.304 201.747 M 47.250 210.743 L 40 211.088 40 240.044 L 40 269 46.971 269 L 53.942 269 54.221 239.499 C 54.374 223.274, 54.500 210.089, 54.500 210.198 C 54.500 210.308, 51.237 210.553, 47.250 210.743 M 90.709 210.726 L 96.917 211.089 97.276 218.548 L 97.635 226.007 97.568 218.253 L 97.500 210.500 91 210.432 L 84.500 210.363 90.709 210.726 M 137.776 210.733 C 140.128 210.945, 143.728 210.942, 145.776 210.727 C 147.824 210.512, 145.900 210.339, 141.500 210.343 C 137.100 210.346, 135.424 210.522, 137.776 210.733 M 931.304 252.747 C 937.247 252.924, 946.697 252.923, 952.304 252.745 C 957.912 252.567, 953.050 252.422, 941.500 252.423 C 929.950 252.424, 925.362 252.570, 931.304 252.747 M 221.328 276.500 C 221.333 280.350, 221.513 281.802, 221.730 279.728 C 221.946 277.653, 221.943 274.503, 221.722 272.728 C 221.501 270.952, 221.324 272.650, 221.328 276.500 M 319.287 281.740 C 322.469 281.939, 327.419 281.937, 330.287 281.736 C 333.154 281.535, 330.550 281.372, 324.500 281.374 C 318.450 281.376, 316.104 281.541, 319.287 281.740 M 400.287 281.740 C 403.469 281.939, 408.419 281.937, 411.287 281.736 C 414.154 281.535, 411.550 281.372, 405.500 281.374 C 399.450 281.376, 397.104 281.541, 400.287 281.740 M 594.750 281.746 C 600.388 281.924, 609.612 281.924, 615.250 281.746 C 620.888 281.568, 616.275 281.422, 605 281.422 C 593.725 281.422, 589.112 281.568, 594.750 281.746 M 677.250 281.739 C 680.413 281.937, 685.587 281.937, 688.750 281.739 C 691.913 281.541, 689.325 281.378, 683 281.378 C 676.675 281.378, 674.087 281.541, 677.250 281.739 M 758.250 281.739 C 761.413 281.937, 766.587 281.937, 769.750 281.739 C 772.913 281.541, 770.325 281.378, 764 281.378 C 757.675 281.378, 755.087 281.541, 758.250 281.739 M 821.287 281.740 C 824.469 281.939, 829.419 281.937, 832.287 281.736 C 835.154 281.535, 832.550 281.372, 826.500 281.374 C 820.450 281.376, 818.104 281.541, 821.287 281.740 M 931.304 281.747 C 937.247 281.924, 946.697 281.923, 952.304 281.745 C 957.912 281.567, 953.050 281.422, 941.500 281.423 C 929.950 281.424, 925.362 281.570, 931.304 281.747 M 1017.250 281.739 C 1020.413 281.937, 1025.588 281.937, 1028.750 281.739 C 1031.912 281.541, 1029.325 281.378, 1023 281.378 C 1016.675 281.378, 1014.087 281.541, 1017.250 281.739 M 1136.304 281.747 C 1142.247 281.924, 1151.697 281.923, 1157.304 281.745 C 1162.912 281.567, 1158.050 281.422, 1146.500 281.423 C 1134.950 281.424, 1130.362 281.570, 1136.304 281.747 M 23.784 284.738 C 26.689 284.941, 31.189 284.939, 33.784 284.734 C 36.378 284.528, 34 284.363, 28.500 284.365 C 23 284.368, 20.878 284.536, 23.784 284.738" stroke="none" fill="#ea9b58" fill-rule="evenodd"/><path d="M 78 168 L 78 176 81.500 176 L 85 176 85 168 L 85 160 81.500 160 L 78 160 78 168 M 158 218.500 L 158 227 161.500 227 L 165 227 165 219.050 L 165 211.100 170.750 210.739 C 174.908 210.478, 173.939 210.326, 167.250 210.189 L 158 210 158 218.500 M 77 219 L 77 227 80.500 227 L 84 227 84 219 L 84 211 80.500 211 L 77 211 77 219 M 23.784 268.738 C 26.689 268.941, 31.189 268.939, 33.784 268.734 C 36.378 268.528, 34 268.363, 28.500 268.365 C 23 268.368, 20.878 268.536, 23.784 268.738 M 17.328 276.500 C 17.333 280.350, 17.513 281.802, 17.730 279.728 C 17.946 277.653, 17.943 274.503, 17.722 272.728 C 17.501 270.952, 17.324 272.650, 17.328 276.500" stroke="none" fill="#fd4755" fill-rule="evenodd"/><path d="M 78 168 L 78 176 81.500 176 L 85 176 85 168 L 85 160 81.500 160 L 78 160 78 168 M 158 218.500 L 158 227 161.500 227 L 165 227 165 219.050 L 165 211.100 170.750 210.739 C 174.908 210.478, 173.939 210.326, 167.250 210.189 L 158 210 158 218.500 M 77 219 L 77 227 80.500 227 L 84 227 84 219 L 84 211 80.500 211 L 77 211 77 219 M 23.784 268.738 C 26.689 268.941, 31.189 268.939, 33.784 268.734 C 36.378 268.528, 34 268.363, 28.500 268.365 C 23 268.368, 20.878 268.536, 23.784 268.738 M 17.328 276.500 C 17.333 280.350, 17.513 281.802, 17.730 279.728 C 17.946 277.653, 17.943 274.503, 17.722 272.728 C 17.501 270.952, 17.324 272.650, 17.328 276.500" stroke="none" fill="#fd4755" fill-rule="evenodd"/><path d="M 78 168 L 78 176 81.500 176 L 85 176 85 168 L 85 160 81.500 160 L 78 160 78 168 M 158 218.500 L 158 227 161.500 227 L 165 227 165 219.050 L 165 211.100 170.750 210.739 C 174.908 210.478, 173.939 210.326, 167.250 210.189 L 158 210 158 218.500 M 77 219 L 77 227 80.500 227 L 84 227 84 219 L 84 211 80.500 211 L 77 211 77 219 M 23.784 268.738 C 26.689 268.941, 31.189 268.939, 33.784 268.734 C 36.378 268.528, 34 268.363, 28.500 268.365 C 23 268.368, 20.878 268.536, 23.784 268.738 M 17.328 276.500 C 17.333 280.350, 17.513 281.802, 17.730 279.728 C 17.946 277.653, 17.943 274.503, 17.722 272.728 C 17.501 270.952, 17.324 272.650, 17.328 276.500" stroke="none" fill="#fd4755" fill-rule="evenodd"/><path d="M 140.444 156 C 140.444 172.775, 140.581 179.637, 140.748 171.250 C 140.915 162.863, 140.915 149.137, 140.748 140.750 C 140.581 132.363, 140.444 139.225, 140.444 156 M 59.776 159.733 C 62.128 159.945, 65.728 159.942, 67.776 159.727 C 69.824 159.512, 67.900 159.339, 63.500 159.343 C 59.100 159.346, 57.424 159.522, 59.776 159.733 M 85 168 L 85 176 90.500 176 L 96 176 96 168 L 96 160 90.500 160 L 85 160 85 168 M 54.231 185.204 L 54 209.909 47.250 210.258 L 40.500 210.608 47.281 210.804 C 51.991 210.940, 54.212 210.612, 54.550 209.730 C 54.818 209.032, 54.908 197.669, 54.750 184.480 L 54.462 160.500 54.231 185.204 M 436.466 215 C 436.466 244.975, 436.594 257.237, 436.749 242.250 C 436.905 227.262, 436.905 202.737, 436.749 187.750 C 436.594 172.762, 436.466 185.025, 436.466 215 M 80.750 210.690 L 84 211.121 84 219.060 L 84 227 90.500 227 L 97 227 97 219 L 97 211 92.250 210.991 C 89.638 210.987, 85.250 210.820, 82.500 210.621 C 79.750 210.422, 78.963 210.453, 80.750 210.690 M 123.250 210.728 C 125.313 210.944, 128.688 210.944, 130.750 210.728 C 132.813 210.513, 131.125 210.336, 127 210.336 C 122.875 210.336, 121.188 210.513, 123.250 210.728 M 170.750 210.739 L 165 211.100 165 219.050 L 165 227 170.500 227 L 176 227 176 219.032 L 176 211.063 187.750 210.747 L 199.500 210.430 188 210.404 C 181.675 210.390, 173.912 210.541, 170.750 210.739 M 199.441 240 C 199.441 255.675, 199.579 262.087, 199.748 254.250 C 199.917 246.412, 199.917 233.587, 199.748 225.750 C 199.579 217.912, 199.441 224.325, 199.441 240 M 129.500 284 L 37.500 284.516 129.191 284.758 C 189.502 284.917, 221.093 284.658, 221.500 284 C 221.840 283.450, 221.979 283.109, 221.809 283.242 C 221.639 283.375, 180.100 283.716, 129.500 284" stroke="none" fill="#fe646f" fill-rule="evenodd"/><path d="M 140.444 156 C 140.444 172.775, 140.581 179.637, 140.748 171.250 C 140.915 162.863, 140.915 149.137, 140.748 140.750 C 140.581 132.363, 140.444 139.225, 140.444 156 M 59.776 159.733 C 62.128 159.945, 65.728 159.942, 67.776 159.727 C 69.824 159.512, 67.900 159.339, 63.500 159.343 C 59.100 159.346, 57.424 159.522, 59.776 159.733 M 85 168 L 85 176 90.500 176 L 96 176 96 168 L 96 160 90.500 160 L 85 160 85 168 M 54.231 185.204 L 54 209.909 47.250 210.258 L 40.500 210.608 47.281 210.804 C 51.991 210.940, 54.212 210.612, 54.550 209.730 C 54.818 209.032, 54.908 197.669, 54.750 184.480 L 54.462 160.500 54.231 185.204 M 436.466 215 C 436.466 244.975, 436.594 257.237, 436.749 242.250 C 436.905 227.262, 436.905 202.737, 436.749 187.750 C 436.594 172.762, 436.466 185.025, 436.466 215 M 80.750 210.690 L 84 211.121 84 219.060 L 84 227 90.500 227 L 97 227 97 219 L 97 211 92.250 210.991 C 89.638 210.987, 85.250 210.820, 82.500 210.621 C 79.750 210.422, 78.963 210.453, 80.750 210.690 M 123.250 210.728 C 125.313 210.944, 128.688 210.944, 130.750 210.728 C 132.813 210.513, 131.125 210.336, 127 210.336 C 122.875 210.336, 121.188 210.513, 123.250 210.728 M 170.750 210.739 L 165 211.100 165 219.050 L 165 227 170.500 227 L 176 227 176 219.032 L 176 211.063 187.750 210.747 L 199.500 210.430 188 210.404 C 181.675 210.390, 173.912 210.541, 170.750 210.739 M 199.441 240 C 199.441 255.675, 199.579 262.087, 199.748 254.250 C 199.917 246.412, 199.917 233.587, 199.748 225.750 C 199.579 217.912, 199.441 224.325, 199.441 240 M 129.500 284 L 37.500 284.516 129.191 284.758 C 189.502 284.917, 221.093 284.658, 221.500 284 C 221.840 283.450, 221.979 283.109, 221.809 283.242 C 221.639 283.375, 180.100 283.716, 129.500 284" stroke="none" fill="#fe646f" fill-rule="evenodd"/><path d="M 815.419 141 C 815.419 151.725, 815.566 156.113, 815.746 150.750 C 815.925 145.387, 815.925 136.613, 815.746 131.250 C 815.566 125.888, 815.419 130.275, 815.419 141 M 69 185 L 69 210 94 210 L 119 210 119 185 L 119 160 108.040 160 L 97.081 160 96.790 168.250 L 96.500 176.500 87.250 176.788 L 78 177.075 78 168.538 L 78 160 73.500 160 L 69 160 69 185 M 815.461 235.500 C 815.461 260.800, 815.591 271.007, 815.749 258.181 C 815.908 245.356, 815.907 224.656, 815.749 212.181 C 815.590 199.707, 815.461 210.200, 815.461 235.500 M 554.426 221.500 C 554.427 233.600, 554.571 238.413, 554.747 232.195 C 554.923 225.977, 554.922 216.077, 554.746 210.195 C 554.569 204.313, 554.425 209.400, 554.426 221.500 M 149 240 L 149 269 174 269 L 199 269 199 240 L 199 211 187.500 211 L 176 211 176 219 L 176 227 166.500 227 L 157 227 157 219 L 157 211 153 211 L 149 211 149 240 M 416.449 247.500 C 416.449 266.200, 416.584 273.709, 416.749 264.186 C 416.913 254.663, 416.913 239.363, 416.748 230.186 C 416.583 221.009, 416.449 228.800, 416.449 247.500" stroke="none" fill="#fed2a4" fill-rule="evenodd"/><path d="M 97.500 218.500 L 97.500 226.500 87.250 226.785 L 77 227.070 77 219.035 L 77 211 65.500 211 L 54 211 54 240 L 54 269 93.970 269 L 133.940 269 134.220 240.250 C 134.374 224.438, 134.464 211.389, 134.421 211.254 C 134.377 211.119, 126.052 210.894, 115.921 210.754 L 97.500 210.500 97.500 218.500 M 157.343 218.500 C 157.346 222.900, 157.522 224.576, 157.733 222.224 C 157.945 219.872, 157.942 216.272, 157.727 214.224 C 157.512 212.176, 157.339 214.100, 157.343 218.500" stroke="none" fill="#f6a96c" fill-rule="evenodd"/><path d="M 815.419 141 C 815.419 151.725, 815.566 156.113, 815.746 150.750 C 815.925 145.387, 815.925 136.613, 815.746 131.250 C 815.566 125.888, 815.419 130.275, 815.419 141 M 69 185 L 69 210 94 210 L 119 210 119 185 L 119 160 108.040 160 L 97.081 160 96.790 168.250 L 96.500 176.500 87.250 176.788 L 78 177.075 78 168.538 L 78 160 73.500 160 L 69 160 69 185 M 815.461 235.500 C 815.461 260.800, 815.591 271.007, 815.749 258.181 C 815.908 245.356, 815.907 224.656, 815.749 212.181 C 815.590 199.707, 815.461 210.200, 815.461 235.500 M 554.426 221.500 C 554.427 233.600, 554.571 238.413, 554.747 232.195 C 554.923 225.977, 554.922 216.077, 554.746 210.195 C 554.569 204.313, 554.425 209.400, 554.426 221.500 M 149 240 L 149 269 174 269 L 199 269 199 240 L 199 211 187.500 211 L 176 211 176 219 L 176 227 166.500 227 L 157 227 157 219 L 157 211 153 211 L 149 211 149 240 M 416.449 247.500 C 416.449 266.200, 416.584 273.709, 416.749 264.186 C 416.913 254.663, 416.913 239.363, 416.748 230.186 C 416.583 221.009, 416.449 228.800, 416.449 247.500" stroke="none" fill="#fed2a4" fill-rule="evenodd"/><path d="M 140.444 156 C 140.444 172.775, 140.581 179.637, 140.748 171.250 C 140.915 162.863, 140.915 149.137, 140.748 140.750 C 140.581 132.363, 140.444 139.225, 140.444 156 M 59.776 159.733 C 62.128 159.945, 65.728 159.942, 67.776 159.727 C 69.824 159.512, 67.900 159.339, 63.500 159.343 C 59.100 159.346, 57.424 159.522, 59.776 159.733 M 85 168 L 85 176 90.500 176 L 96 176 96 168 L 96 160 90.500 160 L 85 160 85 168 M 54.231 185.204 L 54 209.909 47.250 210.258 L 40.500 210.608 47.281 210.804 C 51.991 210.940, 54.212 210.612, 54.550 209.730 C 54.818 209.032, 54.908 197.669, 54.750 184.480 L 54.462 160.500 54.231 185.204 M 436.466 215 C 436.466 244.975, 436.594 257.237, 436.749 242.250 C 436.905 227.262, 436.905 202.737, 436.749 187.750 C 436.594 172.762, 436.466 185.025, 436.466 215 M 80.750 210.690 L 84 211.121 84 219.060 L 84 227 90.500 227 L 97 227 97 219 L 97 211 92.250 210.991 C 89.638 210.987, 85.250 210.820, 82.500 210.621 C 79.750 210.422, 78.963 210.453, 80.750 210.690 M 123.250 210.728 C 125.313 210.944, 128.688 210.944, 130.750 210.728 C 132.813 210.513, 131.125 210.336, 127 210.336 C 122.875 210.336, 121.188 210.513, 123.250 210.728 M 170.750 210.739 L 165 211.100 165 219.050 L 165 227 170.500 227 L 176 227 176 219.032 L 176 211.063 187.750 210.747 L 199.500 210.430 188 210.404 C 181.675 210.390, 173.912 210.541, 170.750 210.739 M 199.441 240 C 199.441 255.675, 199.579 262.087, 199.748 254.250 C 199.917 246.412, 199.917 233.587, 199.748 225.750 C 199.579 217.912, 199.441 224.325, 199.441 240 M 129.500 284 L 37.500 284.516 129.191 284.758 C 189.502 284.917, 221.093 284.658, 221.500 284 C 221.840 283.450, 221.979 283.109, 221.809 283.242 C 221.639 283.375, 180.100 283.716, 129.500 284" stroke="none" fill="#fe646f" fill-rule="evenodd"/><path d="M 148.548 97.403 C 145.683 100.481, 142.943 103, 142.458 103 C 141.973 103, 139.725 101.184, 137.463 98.964 C 134.656 96.209, 132.819 95.132, 131.676 95.571 C 130.754 95.925, 130 96.967, 130 97.888 C 130 98.809, 132.601 102.136, 135.779 105.281 C 138.957 108.427, 142.006 111, 142.554 111 C 143.102 111, 146.845 107.683, 150.873 103.628 C 155.789 98.678, 158.078 95.642, 157.836 94.389 C 157.639 93.363, 156.640 92.362, 155.617 92.165 C 154.380 91.927, 152.012 93.681, 148.548 97.403 M 168.468 101.233 C 168.449 104.979, 167.781 108.797, 166.808 110.724 L 165.179 113.949 180.339 114.224 L 195.500 114.500 195.500 117 L 195.500 119.500 177.621 119.774 C 162.062 120.012, 159.402 120.289, 157.121 121.910 C 155.680 122.935, 152.700 124.272, 150.500 124.881 C 148.300 125.490, 145.262 125.991, 143.750 125.994 L 141 126 141 156 L 141 186 177.010 186 L 213.020 186 212.760 140.750 L 212.500 95.500 190.500 95.233 L 168.500 94.966 168.468 101.233 M 267 201.500 L 267 281 278 281 L 289 281 289 201.500 L 289 122 278 122 L 267 122 267 201.500 M 815.772 141.250 L 815.500 160.500 800.750 160.777 L 786 161.053 786 175 L 786 188.947 800.750 189.223 L 815.500 189.500 815.760 235.250 L 816.020 281 827.010 281 L 838 281 838 235 L 838 189 857.500 189 L 877 189 877 175 L 877 161 857.500 161 L 838 161 838 141.500 L 838 122 827.022 122 L 816.043 122 815.772 141.250 M 157.590 131.627 C 157.246 132.521, 157.478 133.871, 158.105 134.627 C 158.994 135.697, 163.179 136, 177.087 136 C 193.070 136, 195.023 135.818, 195.830 134.250 C 196.325 133.287, 196.528 131.938, 196.282 131.250 C 195.945 130.310, 191.166 130, 177.024 130 C 160.575 130, 158.136 130.204, 157.590 131.627 M 157.649 147.471 C 157.339 148.280, 157.773 149.630, 158.614 150.471 C 159.865 151.722, 163.207 152, 177 152 C 190.793 152, 194.135 151.722, 195.386 150.471 C 196.227 149.630, 196.661 148.280, 196.351 147.471 C 195.881 146.249, 192.612 146, 177 146 C 161.388 146, 158.119 146.249, 157.649 147.471 M 158.614 162.529 C 157.773 163.370, 157.339 164.720, 157.649 165.529 C 158.107 166.722, 160.742 167, 171.607 167 L 185 167 185 164.607 C 185 163.291, 184.288 161.941, 183.418 161.607 C 182.548 161.273, 176.955 161, 170.990 161 C 162.590 161, 159.798 161.345, 158.614 162.529 M 319.881 162.468 C 318.441 163.270, 316.529 165.473, 315.631 167.364 C 314.184 170.414, 314 177.022, 314 225.901 L 314 281 324.490 281 L 334.980 281 335.240 235.250 L 335.500 189.500 357.500 189.500 C 376.466 189.500, 379.936 189.738, 382.660 191.229 C 384.398 192.180, 387.140 194.560, 388.754 196.518 C 390.368 198.476, 392.289 201.747, 393.023 203.789 C 394.015 206.546, 394.458 216.948, 394.746 244.250 L 395.133 281 405.566 281 L 416 281 415.985 242.250 C 415.973 211.447, 415.665 202.203, 414.480 197.176 C 413.660 193.698, 411.824 188.391, 410.401 185.382 C 408.978 182.374, 405.339 177.240, 402.315 173.974 C 398.634 169.998, 394.625 166.955, 390.183 164.768 L 383.550 161.500 353.025 161.254 C 327.805 161.052, 322.045 161.262, 319.881 162.468 M 437 216.099 C 437 265.223, 437.179 271.575, 438.649 274.674 C 439.557 276.586, 441.372 278.853, 442.683 279.712 C 444.558 280.940, 446.928 281.166, 453.783 280.768 C 459.425 280.441, 465.078 279.363, 469.806 277.712 C 473.824 276.309, 480.347 273.239, 484.302 270.890 C 488.321 268.502, 495.299 262.844, 500.124 258.059 C 505.035 253.189, 511.440 245.405, 514.983 240 C 518.407 234.775, 523.249 226.450, 525.743 221.500 C 528.236 216.550, 532.179 207.766, 534.506 201.979 C 536.833 196.193, 540.349 186.186, 542.320 179.743 C 544.292 173.299, 546.201 166.446, 546.563 164.513 L 547.223 161 535.723 161 L 524.223 161 523.523 164.750 C 523.138 166.813, 521.504 172.625, 519.891 177.667 C 518.279 182.709, 514.901 191.476, 512.386 197.149 C 509.870 202.822, 506.643 209.497, 505.214 211.982 C 503.785 214.467, 500.494 219.681, 497.899 223.569 C 495.305 227.458, 490.948 233.083, 488.217 236.069 C 485.486 239.056, 480.748 243.223, 477.687 245.329 C 474.627 247.435, 469.999 249.798, 467.403 250.579 C 464.806 251.361, 461.854 252, 460.841 252 C 459.080 252, 459 250.024, 459 206.500 L 459 161 448 161 L 437 161 437 216.099 M 577.994 161.934 C 576.615 162.354, 574.140 163.403, 572.494 164.266 C 570.847 165.129, 567.843 167.560, 565.817 169.668 C 563.792 171.775, 561.026 175.750, 559.670 178.500 C 558.315 181.250, 556.674 185.975, 556.024 189 C 555.216 192.763, 554.946 204.135, 555.171 225 L 555.500 255.500 558.613 262 C 560.325 265.575, 563.475 270.232, 565.613 272.348 C 567.751 274.464, 571.300 277.164, 573.500 278.348 C 577.217 280.348, 579.181 280.522, 601.250 280.815 L 625 281.131 625 267.565 L 625 254 603.723 254 C 585.670 254, 582.092 253.753, 580.117 252.369 C 578.836 251.472, 577.161 249.237, 576.394 247.401 C 575.348 244.897, 575 238.676, 575 222.475 C 575 210.050, 575.468 199.026, 576.103 196.504 C 576.710 194.095, 578.106 191.308, 579.206 190.312 C 580.989 188.696, 583.650 188.467, 603.764 188.196 C 619.617 187.982, 627.181 188.247, 629.209 189.086 C 630.796 189.744, 632.818 191.681, 633.702 193.390 C 634.586 195.100, 635.281 198.353, 635.247 200.620 C 635.213 202.888, 634.498 206.071, 633.658 207.694 C 632.819 209.317, 631.359 211.288, 630.415 212.073 C 629.071 213.189, 623.944 213.570, 606.849 213.820 L 585 214.140 585 227.070 L 585 240 608.750 239.978 C 629.681 239.959, 632.975 239.737, 636.500 238.113 C 638.700 237.100, 642.242 234.560, 644.371 232.470 C 646.499 230.380, 649.522 225.961, 651.088 222.650 C 652.654 219.339, 654.455 214.126, 655.091 211.065 C 655.741 207.933, 656.034 201.443, 655.761 196.221 C 655.336 188.089, 654.823 186.026, 651.610 179.525 C 649.310 174.871, 646.401 170.787, 643.801 168.562 C 641.523 166.612, 637.244 164.112, 634.292 163.008 C 629.432 161.190, 626.635 161.008, 604.712 161.086 C 591.396 161.133, 579.372 161.515, 577.994 161.934 M 677.514 163.168 C 675.998 164.360, 674.137 166.821, 673.379 168.636 C 672.264 171.303, 672 182.387, 672 226.468 L 672 281 683 281 L 694 281 694 235 L 694 189 713.250 189.024 C 723.837 189.038, 734.480 189.505, 736.900 190.063 C 739.320 190.621, 742.595 192, 744.178 193.127 C 745.760 194.253, 748.280 197.499, 749.778 200.338 L 752.500 205.500 752.795 243.250 L 753.090 281 764.045 281 L 775 281 774.992 245.250 C 774.988 225.588, 774.533 206.575, 773.980 203 C 773.428 199.425, 771.848 193.341, 770.470 189.479 C 769.076 185.574, 766.033 179.998, 763.611 176.912 C 761.217 173.861, 756.837 169.759, 753.879 167.795 C 750.920 165.832, 746.056 163.500, 743.068 162.613 C 738.623 161.293, 732.429 161, 708.953 161 L 680.270 161 677.514 163.168 M 911.590 163.446 C 908.339 164.799, 903.981 167.566, 901.905 169.593 C 899.829 171.620, 896.790 175.804, 895.152 178.890 C 893.514 181.975, 891.685 187.170, 891.087 190.434 C 890.489 193.697, 890 207.452, 890 221 C 890 234.548, 890.490 248.282, 891.088 251.520 C 891.687 254.758, 893.485 259.998, 895.083 263.165 C 896.682 266.332, 899.579 270.513, 901.522 272.455 C 903.464 274.397, 906.954 277.002, 909.277 278.243 C 913.367 280.429, 914.369 280.500, 941.069 280.500 L 968.638 280.500 974.541 277.482 C 978.554 275.430, 981.649 272.870, 984.212 269.482 C 986.285 266.742, 988.964 261.800, 990.167 258.500 C 992.166 253.013, 992.386 250.191, 992.750 225.500 C 993.071 203.672, 992.847 197.068, 991.580 191.024 C 990.718 186.912, 988.892 181.256, 987.522 178.456 C 986.152 175.656, 983.337 171.663, 981.266 169.584 C 979.195 167.505, 975.700 164.836, 973.500 163.652 C 969.740 161.629, 967.938 161.485, 943.500 161.242 L 917.500 160.984 911.590 163.446 M 1033.590 163.477 C 1030.339 164.814, 1025.998 167.549, 1023.943 169.555 C 1021.888 171.562, 1019.015 175.394, 1017.558 178.072 C 1016.100 180.749, 1014.262 185.990, 1013.471 189.720 C 1012.354 194.994, 1012.031 205.887, 1012.017 238.750 L 1012 281 1023 281 L 1034 281 1034 239.468 C 1034 205.851, 1034.271 197.288, 1035.420 194.537 C 1036.515 191.918, 1037.719 190.894, 1040.670 190.075 C 1042.898 189.456, 1054.851 189.009, 1069.250 189.006 L 1094 189 1094 175 L 1094 161 1066.750 161.024 L 1039.500 161.047 1033.590 163.477 M 1118 174.395 L 1118 187.907 1144.479 188.203 L 1170.958 188.500 1173.729 191.271 L 1176.500 194.042 1176.801 218.749 C 1176.967 232.338, 1176.854 244.444, 1176.551 245.651 C 1176.248 246.858, 1174.835 249.231, 1173.411 250.923 L 1170.822 254 1147.861 254 C 1129.945 254, 1124.295 253.687, 1122.145 252.575 C 1120.629 251.791, 1118.852 249.970, 1118.195 248.528 C 1117.538 247.086, 1117 243.880, 1117 241.403 C 1117 238.927, 1117.641 235.661, 1118.425 234.145 C 1119.209 232.629, 1121.030 230.852, 1122.472 230.195 C 1124.238 229.390, 1131.932 229, 1146.047 229 L 1167 229 1167 215.500 L 1167 202 1143.750 202.010 C 1121.442 202.019, 1120.295 202.115, 1115.444 204.374 C 1112.456 205.765, 1108.670 208.727, 1106.188 211.614 C 1103.878 214.301, 1101.037 218.975, 1099.875 222 C 1098.713 225.025, 1097.276 230.762, 1096.682 234.750 C 1095.916 239.893, 1095.910 244.138, 1096.661 249.355 C 1097.244 253.401, 1098.888 259.260, 1100.314 262.375 C 1101.779 265.574, 1105.093 270.169, 1107.930 272.932 C 1111.169 276.086, 1114.715 278.409, 1117.918 279.473 C 1122.136 280.874, 1126.843 281.075, 1149.192 280.811 C 1172.280 280.538, 1175.904 280.279, 1178.803 278.697 C 1180.620 277.705, 1183.864 275.136, 1186.012 272.988 C 1188.160 270.840, 1190.904 267.152, 1192.111 264.791 C 1193.318 262.431, 1194.971 258.250, 1195.785 255.500 C 1196.857 251.879, 1197.394 243.395, 1197.731 224.728 C 1198.040 207.669, 1197.806 196.681, 1197.041 192.228 C 1196.404 188.527, 1194.761 183.025, 1193.389 180 C 1192.018 176.975, 1189.231 172.774, 1187.198 170.664 C 1185.164 168.554, 1181.250 165.629, 1178.500 164.164 L 1173.500 161.500 1145.750 161.192 L 1118 160.884 1118 174.395 M 918.263 190.116 C 916.253 190.696, 914.451 192.160, 913.513 193.976 C 912.285 196.349, 912 201.445, 912 221 C 912 240.797, 912.276 245.634, 913.548 248.093 C 914.399 249.739, 916.229 251.517, 917.613 252.043 C 918.997 252.569, 929.747 253, 941.500 253 C 953.253 253, 964.003 252.569, 965.387 252.043 C 966.771 251.517, 968.601 249.739, 969.452 248.093 C 970.721 245.639, 971 240.848, 971 221.518 C 971 203.408, 970.670 197.147, 969.580 194.537 C 968.485 191.918, 967.281 190.894, 964.330 190.075 C 962.170 189.475, 951.996 189.048, 941 189.096 C 930.275 189.142, 920.043 189.601, 918.263 190.116" stroke="none" fill="#eaf6ff" fill-rule="evenodd"/><path d="M 162.501 116.999 L 159.580 120.048 177.540 119.774 L 195.500 119.500 195.500 117 L 195.500 114.500 180.461 114.225 L 165.422 113.950 162.501 116.999 M 157.590 131.627 C 157.246 132.521, 157.478 133.871, 158.105 134.627 C 158.994 135.697, 163.179 136, 177.087 136 C 193.070 136, 195.023 135.818, 195.830 134.250 C 196.325 133.287, 196.528 131.938, 196.282 131.250 C 195.945 130.310, 191.166 130, 177.024 130 C 160.575 130, 158.136 130.204, 157.590 131.627 M 157.649 147.471 C 157.339 148.280, 157.773 149.630, 158.614 150.471 C 159.865 151.722, 163.207 152, 177 152 C 190.793 152, 194.135 151.722, 195.386 150.471 C 196.227 149.630, 196.661 148.280, 196.351 147.471 C 195.881 146.249, 192.612 146, 177 146 C 161.388 146, 158.119 146.249, 157.649 147.471 M 158.614 162.529 C 157.773 163.370, 157.339 164.720, 157.649 165.529 C 158.107 166.722, 160.742 167, 171.607 167 L 185 167 185 164.607 C 185 163.291, 184.288 161.941, 183.418 161.607 C 182.548 161.273, 176.955 161, 170.990 161 C 162.590 161, 159.798 161.345, 158.614 162.529 M 313.466 227.500 C 313.466 257.200, 313.594 269.206, 313.749 254.179 C 313.905 239.153, 313.905 214.853, 313.749 200.179 C 313.593 185.506, 313.466 197.800, 313.466 227.500 M 146.250 186.735 C 148.863 186.941, 153.137 186.941, 155.750 186.735 C 158.363 186.529, 156.225 186.360, 151 186.360 C 145.775 186.360, 143.637 186.529, 146.250 186.735 M 335.458 190.250 C 335.194 190.938, 335.101 211.750, 335.250 236.500 L 335.521 281.500 335.761 235.771 L 336 190.042 355.750 189.749 L 375.500 189.455 355.719 189.228 C 340.645 189.054, 335.823 189.297, 335.458 190.250 M 704.803 189.746 C 710.470 189.925, 719.470 189.924, 724.803 189.745 C 730.136 189.565, 725.500 189.419, 714.500 189.420 C 703.500 189.421, 699.136 189.568, 704.803 189.746 M 793.296 189.744 C 797.583 189.932, 804.333 189.931, 808.296 189.742 C 812.258 189.552, 808.750 189.399, 800.500 189.400 C 792.250 189.401, 789.008 189.556, 793.296 189.744 M 847.803 189.746 C 853.470 189.925, 862.470 189.924, 867.803 189.745 C 873.136 189.565, 868.500 189.419, 857.500 189.420 C 846.500 189.421, 842.136 189.568, 847.803 189.746 M 931.304 189.747 C 937.247 189.924, 946.697 189.923, 952.304 189.745 C 957.912 189.567, 953.050 189.422, 941.500 189.423 C 929.950 189.424, 925.362 189.570, 931.304 189.747 M 1055.191 189.747 C 1062.171 189.918, 1073.871 189.919, 1081.191 189.748 C 1088.511 189.577, 1082.800 189.436, 1068.500 189.436 C 1054.200 189.435, 1048.211 189.575, 1055.191 189.747 M 394.450 247 C 394.450 265.975, 394.584 273.738, 394.748 264.250 C 394.913 254.762, 394.913 239.238, 394.748 229.750 C 394.584 220.262, 394.450 228.025, 394.450 247 M 595.304 213.747 C 601.247 213.924, 610.697 213.923, 616.304 213.745 C 621.912 213.567, 617.050 213.422, 605.500 213.423 C 593.950 213.424, 589.362 213.570, 595.304 213.747 M 595.195 240.746 C 601.077 240.922, 610.977 240.923, 617.195 240.747 C 623.413 240.571, 618.600 240.427, 606.500 240.426 C 594.400 240.425, 589.313 240.569, 595.195 240.746 M 625.395 267.500 C 625.396 275.200, 625.553 278.218, 625.743 274.206 C 625.934 270.195, 625.932 263.895, 625.741 260.206 C 625.549 256.518, 625.393 259.800, 625.395 267.500" stroke="none" fill="#8ac9fe" fill-rule="evenodd"/><path d="M 133.459 78.367 C 130.687 79.658, 127.183 82.182, 125.673 83.977 C 124.163 85.772, 122.185 88.648, 121.277 90.370 C 120.214 92.385, 119.613 95.993, 119.587 100.500 C 119.558 105.792, 120.070 108.476, 121.687 111.500 C 122.863 113.700, 125.327 116.940, 127.162 118.699 C 128.998 120.459, 132.288 122.645, 134.474 123.556 C 136.659 124.468, 140.996 125.238, 144.110 125.267 C 148.103 125.305, 151.059 124.657, 154.136 123.071 C 156.536 121.833, 159.796 119.624, 161.380 118.160 C 162.964 116.697, 165.179 113.475, 166.302 111 C 167.674 107.976, 168.321 104.532, 168.273 100.500 C 168.234 97.200, 167.709 93.239, 167.106 91.697 C 166.503 90.156, 164.586 87.123, 162.845 84.957 C 161.105 82.792, 157.415 79.891, 154.644 78.510 C 151.071 76.729, 147.994 76.003, 144.054 76.010 C 140.341 76.016, 136.829 76.798, 133.459 78.367 M 148.071 97.426 L 142.642 102.925 138.274 98.898 C 135.871 96.684, 133.144 95.018, 132.214 95.197 C 131.284 95.376, 130.362 96.361, 130.164 97.384 C 129.930 98.600, 131.823 101.285, 135.622 105.123 C 138.820 108.355, 141.913 111, 142.494 111 C 143.075 111, 146.845 107.683, 150.873 103.628 C 155.808 98.660, 158.079 95.643, 157.838 94.378 C 157.641 93.345, 156.584 92.371, 155.490 92.214 C 154.178 92.025, 151.651 93.801, 148.071 97.426" stroke="none" fill="#4fc123" fill-rule="evenodd"/><path d="M 1 180 L 1 360 603.500 360 L 1206 360 1206 180 L 1206 0 603.500 0 L 1 0 1 180 M 133.500 77.871 C 131.300 78.876, 127.622 81.744, 125.326 84.244 C 123.030 86.745, 120.670 90.525, 120.081 92.645 C 119.493 94.765, 119.009 98.608, 119.006 101.185 C 119.003 103.762, 119.475 107.137, 120.056 108.685 C 120.637 110.233, 122.248 113.151, 123.636 115.170 C 125.025 117.188, 127.872 120.025, 129.964 121.475 C 132.056 122.925, 135.057 124.455, 136.634 124.877 L 139.500 125.643 140 156.071 L 140.500 186.500 177 186.500 L 213.500 186.500 213.500 141 L 213.500 95.500 190.871 95.232 L 168.243 94.963 167.648 91.988 C 167.320 90.351, 165.148 86.947, 162.821 84.422 C 160.494 81.897, 156.900 78.969, 154.835 77.916 C 152.207 76.575, 149.042 76.007, 144.290 76.022 C 139.881 76.036, 136.097 76.685, 133.500 77.871 M 267 201.500 L 267 282 278.500 282 L 290 282 290 201.500 L 290 121 278.500 121 L 267 121 267 201.500 M 815 140.500 L 815 160 800.500 160 C 792.525 160, 785.937 160.338, 785.860 160.750 C 785.783 161.162, 785.597 166.675, 785.446 173 C 785.296 179.325, 785.394 185.738, 785.666 187.250 L 786.159 190 800.579 190 L 815 190 815 236 L 815 282 826.500 282 L 838 282 838 236 L 838 190 858 190 L 878 190 878 175 L 878 160 858 160 L 838 160 838 140.500 L 838 121 826.500 121 L 815 121 815 140.500 M 55.250 159.655 C 54.297 160.045, 54 166.090, 54 185.083 L 54 210 47.107 210 C 41.744 210, 40.079 210.351, 39.607 211.582 C 39.273 212.452, 39 225.487, 39 240.548 L 39 267.932 28.250 268.216 L 17.500 268.500 17.500 276.500 L 17.500 284.500 119.500 284.500 L 221.500 284.500 221.500 276.500 L 221.500 268.500 210.765 268.216 L 200.031 267.933 199.765 239.216 L 199.500 210.500 159.767 210.239 L 120.034 209.977 119.767 184.739 L 119.500 159.500 88 159.322 C 70.675 159.224, 55.938 159.374, 55.250 159.655 M 320.085 161.752 C 318.206 162.713, 315.844 165.068, 314.835 166.984 C 313.119 170.243, 313 174.075, 313 226.234 L 313 282 324.500 282 L 336 282 336 236 L 336 190 355.750 190.006 C 367.070 190.009, 377.207 190.483, 379.500 191.116 C 381.877 191.773, 385.006 193.800, 387.212 196.113 C 389.484 198.495, 391.520 202.012, 392.462 205.184 C 393.721 209.424, 394 216.860, 394 246.182 L 394 282 405.560 282 L 417.120 282 416.764 240.250 L 416.408 198.500 413.650 190.858 C 412.133 186.655, 409.096 180.805, 406.901 177.858 C 404.706 174.911, 401.018 170.993, 398.705 169.152 C 396.392 167.310, 392.925 165.003, 391 164.025 C 389.075 163.047, 385.115 161.741, 382.201 161.123 C 379.036 160.452, 366.148 160.001, 350.201 160.002 C 326.751 160.003, 323.084 160.216, 320.085 161.752 M 436 214.375 C 436 244.281, 436.288 270.191, 436.641 271.953 C 436.993 273.714, 438.792 276.758, 440.640 278.717 L 443.998 282.278 452.749 281.764 C 458.408 281.432, 464.326 280.302, 469.500 278.567 C 473.900 277.092, 480.620 274.041, 484.434 271.789 C 488.247 269.536, 495.154 264.057, 499.782 259.614 C 504.965 254.638, 510.889 247.509, 515.207 241.052 C 519.063 235.286, 525.074 224.703, 528.566 217.534 C 532.057 210.365, 537.625 196.305, 540.939 186.288 C 544.253 176.271, 547.255 166.259, 547.610 164.038 L 548.256 160 536.166 160 L 524.077 160 523 164.250 C 522.408 166.588, 520.132 173.819, 517.942 180.320 C 515.751 186.821, 511.764 196.721, 509.080 202.320 C 506.396 207.919, 501.520 216.550, 498.244 221.500 C 494.968 226.450, 490.365 232.660, 488.014 235.301 C 485.664 237.941, 481.027 241.945, 477.710 244.197 C 474.393 246.449, 469.655 248.901, 467.181 249.646 C 464.707 250.391, 461.958 251, 461.074 251 C 459.619 251, 459.473 246.778, 459.549 206.750 C 459.595 182.412, 459.443 161.938, 459.210 161.250 C 458.904 160.348, 455.615 160, 447.393 160 L 436 160 436 214.375 M 578.718 161.054 C 576.637 161.564, 573.712 162.618, 572.218 163.395 C 570.723 164.173, 567.768 166.539, 565.650 168.654 C 563.533 170.769, 560.717 174.630, 559.392 177.233 C 558.067 179.836, 556.312 184.544, 555.492 187.693 C 554.337 192.126, 554 199.905, 554 222.105 C 554 247.848, 554.203 251.445, 555.976 257.187 C 557.063 260.706, 559.345 265.688, 561.048 268.259 C 562.751 270.830, 566.021 274.313, 568.314 276 C 570.608 277.686, 574.707 279.726, 577.424 280.533 C 581.105 281.627, 587.918 282, 604.182 282 L 626 282 626 267.500 L 626 253 604.434 253 C 591.556 253, 582.094 252.585, 580.945 251.970 C 579.886 251.404, 578.341 249.626, 577.510 248.020 C 576.288 245.657, 576 240.595, 576 221.518 C 576 203.445, 576.331 197.144, 577.415 194.548 C 578.194 192.685, 579.739 190.675, 580.850 190.080 C 582.124 189.398, 591.160 189, 605.358 189 L 627.847 189 630.811 191.494 C 632.587 192.989, 634.038 195.390, 634.431 197.484 C 634.793 199.413, 634.539 202.806, 633.865 205.057 C 633.193 207.301, 631.537 210.005, 630.186 211.068 C 627.933 212.840, 625.966 213, 606.365 213 L 585 213 585 227.063 L 585 241.127 609.750 240.813 C 631.331 240.540, 634.923 240.269, 637.803 238.697 C 639.620 237.705, 642.867 235.133, 645.019 232.981 C 647.171 230.829, 650.075 226.812, 651.473 224.053 C 652.871 221.295, 654.679 216.217, 655.492 212.769 C 656.305 209.321, 656.977 203.557, 656.985 199.960 C 656.993 196.363, 656.327 190.837, 655.505 187.680 C 654.682 184.522, 653.075 180.108, 651.934 177.870 C 650.792 175.632, 648.080 171.872, 645.906 169.514 C 643.732 167.156, 639.602 164.166, 636.727 162.871 C 631.741 160.623, 630.369 160.506, 607 160.320 C 593.525 160.213, 580.798 160.543, 578.718 161.054 M 678.304 161.919 C 676.547 163.011, 674.297 165.143, 673.304 166.657 C 671.628 169.214, 671.480 173.407, 671.218 225.705 L 670.936 282 682.968 282 L 695 282 695 235.930 L 695 189.860 716.750 190.180 C 736.302 190.468, 738.830 190.700, 741.766 192.475 C 743.562 193.561, 746.073 196.036, 747.346 197.975 C 748.618 199.914, 750.186 203.030, 750.830 204.899 C 751.641 207.255, 752 219.612, 752 245.149 L 752 282 764.096 282 L 776.192 282 775.753 242.250 C 775.357 206.424, 775.118 201.805, 773.325 195.456 C 772.232 191.582, 769.851 185.625, 768.036 182.219 C 766.221 178.813, 762.533 173.966, 759.841 171.448 C 757.149 168.930, 751.921 165.437, 748.223 163.685 L 741.500 160.500 711.500 160.217 C 683.041 159.948, 681.336 160.035, 678.304 161.919 M 915.734 161.050 C 913.663 161.559, 910.288 162.837, 908.234 163.890 C 906.181 164.943, 902.880 167.431, 900.900 169.419 C 898.920 171.407, 896.086 175.263, 894.604 177.987 C 893.121 180.711, 891.262 185.990, 890.471 189.720 C 889.455 194.516, 889.030 203.498, 889.017 220.418 C 889.008 233.748, 889.501 247.250, 890.131 250.918 C 890.753 254.538, 892.549 260.068, 894.123 263.207 C 895.697 266.345, 898.369 270.490, 900.061 272.417 C 901.753 274.343, 905.694 277.175, 908.818 278.710 L 914.500 281.500 941.500 281.500 L 968.500 281.500 974.176 278.624 C 977.298 277.042, 981.204 274.342, 982.857 272.624 C 984.509 270.906, 986.977 267.250, 988.340 264.500 C 989.703 261.750, 991.422 257.475, 992.159 255 C 993.144 251.696, 993.500 242.924, 993.500 222 C 993.500 197.714, 993.236 192.542, 991.713 187.025 C 990.730 183.463, 988.793 178.616, 987.408 176.253 C 986.024 173.891, 983.268 170.335, 981.285 168.351 C 979.301 166.368, 975.614 163.790, 973.089 162.623 C 968.849 160.661, 966.639 160.486, 944 160.312 C 930.525 160.209, 917.806 160.541, 915.734 161.050 M 1037.734 161.080 C 1035.663 161.572, 1032.268 162.843, 1030.190 163.903 C 1028.111 164.964, 1024.479 167.927, 1022.118 170.488 C 1019.758 173.048, 1016.758 177.560, 1015.452 180.513 C 1014.146 183.467, 1012.610 189.610, 1012.039 194.165 C 1011.467 198.720, 1011 220.347, 1011 242.224 L 1011 282 1023 282 L 1035 282 1035 238.923 L 1035 195.846 1037.923 192.923 L 1040.846 190 1067.950 190 L 1095.053 190 1094.777 175.250 L 1094.500 160.500 1068 160.342 C 1053.425 160.256, 1039.806 160.588, 1037.734 161.080 M 1117 174.429 L 1117 189 1143.444 189 L 1169.888 189 1172.694 191.412 L 1175.500 193.824 1175.796 219.696 L 1176.092 245.567 1173.757 249.034 L 1171.422 252.500 1147.961 252.776 C 1131.872 252.965, 1123.828 252.695, 1122.360 251.916 C 1121.184 251.291, 1119.721 249.684, 1119.110 248.343 C 1118.500 247.003, 1118 243.880, 1118 241.403 C 1118 238.927, 1118.658 235.628, 1119.463 234.072 C 1120.268 232.515, 1121.654 230.963, 1122.545 230.621 C 1123.435 230.280, 1134.027 230, 1146.082 230 L 1168 230 1168 215.437 L 1168 200.873 1143.250 201.187 C 1119.987 201.481, 1118.253 201.632, 1114.387 203.700 C 1112.126 204.910, 1108.212 208.195, 1105.691 210.999 C 1103.117 213.862, 1100.186 218.559, 1099.006 221.714 C 1097.850 224.803, 1096.408 230.843, 1095.801 235.135 C 1094.978 240.954, 1094.995 244.792, 1095.870 250.220 C 1096.515 254.224, 1098.397 260.283, 1100.052 263.685 C 1101.923 267.530, 1104.978 271.593, 1108.128 274.425 C 1111.352 277.324, 1115.043 279.529, 1118.279 280.490 C 1122.187 281.651, 1128.832 282, 1147 282 C 1165.067 282, 1171.824 281.648, 1175.672 280.505 C 1178.552 279.649, 1182.604 277.340, 1185.138 275.110 C 1187.574 272.965, 1190.775 268.992, 1192.251 266.281 C 1193.727 263.569, 1195.672 258.684, 1196.573 255.425 C 1197.774 251.083, 1198.345 243.491, 1198.709 227 C 1198.995 214.055, 1198.756 200.544, 1198.146 195.184 C 1197.469 189.230, 1196.174 183.876, 1194.559 180.348 C 1193.169 177.312, 1190.649 173.083, 1188.960 170.949 C 1187.058 168.548, 1183.346 165.818, 1179.219 163.785 L 1172.550 160.500 1144.775 160.179 L 1117 159.859 1117 174.429 M 915.923 192.923 L 913 195.846 913 220.473 C 913 240.130, 913.295 245.670, 914.463 247.928 C 915.268 249.485, 916.654 251.037, 917.545 251.379 C 918.435 251.720, 929.215 252, 941.500 252 C 953.785 252, 964.565 251.720, 965.455 251.379 C 966.346 251.037, 967.732 249.485, 968.537 247.928 C 969.705 245.670, 970 240.130, 970 220.473 L 970 195.846 967.077 192.923 L 964.154 190 941.500 190 L 918.846 190 915.923 192.923" stroke="none" fill="#610086" fill-rule="evenodd"/><path d="M 0.489 180 C 0.489 279.275, 0.607 319.888, 0.750 270.250 C 0.893 220.612, 0.893 139.388, 0.750 89.750 C 0.607 40.112, 0.489 80.725, 0.489 180 M 213 141.201 C 212.725 166.336, 212.842 186.559, 213.260 186.140 C 213.679 185.722, 213.903 165.156, 213.760 140.440 L 213.499 95.500 213 141.201 M 79 159.698 C 83.675 159.856, 94.770 160.101, 103.656 160.243 C 112.542 160.384, 119.603 160.162, 119.347 159.750 C 119.091 159.338, 107.996 159.093, 94.691 159.206 C 81.386 159.319, 74.325 159.540, 79 159.698 M 336.750 160.748 C 344.587 160.917, 357.412 160.917, 365.250 160.748 C 373.087 160.579, 366.675 160.441, 351 160.441 C 335.325 160.441, 328.912 160.579, 336.750 160.748 M 441.789 160.741 C 445.248 160.937, 450.648 160.936, 453.789 160.738 C 456.930 160.540, 454.100 160.380, 447.500 160.382 C 440.900 160.384, 438.330 160.546, 441.789 160.741 M 529.750 160.740 C 533.188 160.936, 538.813 160.936, 542.250 160.740 C 545.688 160.545, 542.875 160.385, 536 160.385 C 529.125 160.385, 526.313 160.545, 529.750 160.740 M 593.250 160.747 C 599.712 160.921, 610.288 160.921, 616.750 160.747 C 623.212 160.573, 617.925 160.430, 605 160.430 C 592.075 160.430, 586.788 160.573, 593.250 160.747 M 695.311 160.748 C 703.457 160.916, 716.507 160.916, 724.311 160.747 C 732.115 160.579, 725.450 160.441, 709.500 160.441 C 693.550 160.442, 687.165 160.580, 695.311 160.748 M 793.296 160.744 C 797.583 160.932, 804.333 160.931, 808.296 160.742 C 812.258 160.552, 808.750 160.399, 800.500 160.400 C 792.250 160.401, 789.008 160.556, 793.296 160.744 M 857.223 160.749 L 876.947 161.042 877.252 175.771 L 877.558 190.500 877.779 175.250 L 878 160 857.750 160.228 L 837.500 160.455 857.223 160.749 M 930.250 160.747 C 936.712 160.921, 947.288 160.921, 953.750 160.747 C 960.212 160.573, 954.925 160.430, 942 160.430 C 929.075 160.430, 923.788 160.573, 930.250 160.747 M 1067.223 160.741 L 1093.947 161.033 1094.263 175.266 L 1094.580 189.500 1094.540 175 L 1094.500 160.500 1067.500 160.475 L 1040.500 160.449 1067.223 160.741 M 1117.220 174.750 L 1117.441 189.500 1117.748 175.267 L 1118.055 161.034 1143.777 160.749 L 1169.500 160.465 1143.250 160.232 L 1117 160 1117.220 174.750 M 671.467 227 C 671.467 257.525, 671.594 270.012, 671.749 254.750 C 671.905 239.487, 671.905 214.512, 671.749 199.250 C 671.594 183.987, 671.467 196.475, 671.467 227 M 694.461 236 C 694.461 261.575, 694.591 272.038, 694.749 259.250 C 694.907 246.463, 694.907 225.538, 694.749 212.750 C 694.591 199.963, 694.461 210.425, 694.461 236 M 889.437 221 C 889.437 235.575, 889.577 241.537, 889.747 234.250 C 889.918 226.963, 889.918 215.037, 889.747 207.750 C 889.577 200.463, 889.437 206.425, 889.437 221 M 912.428 221 C 912.428 233.375, 912.571 238.438, 912.747 232.250 C 912.922 226.063, 912.922 215.938, 912.747 209.750 C 912.571 203.563, 912.428 208.625, 912.428 221 M 993.430 222 C 993.430 234.925, 993.573 240.213, 993.747 233.750 C 993.921 227.287, 993.921 216.712, 993.747 210.250 C 993.573 203.787, 993.430 209.075, 993.430 222 M 1011.458 240.500 C 1011.458 263.600, 1011.589 272.907, 1011.749 261.183 C 1011.909 249.458, 1011.909 230.558, 1011.749 219.183 C 1011.588 207.807, 1011.457 217.400, 1011.458 240.500 M 1198.426 220.500 C 1198.427 232.600, 1198.571 237.413, 1198.747 231.195 C 1198.923 224.977, 1198.922 215.077, 1198.746 209.195 C 1198.569 203.313, 1198.425 208.400, 1198.426 220.500 M 970.426 221.500 C 970.427 233.600, 970.571 238.413, 970.747 232.195 C 970.923 225.977, 970.922 216.077, 970.746 210.195 C 970.569 204.313, 970.425 209.400, 970.426 221.500 M 1034.457 241 C 1034.457 263.825, 1034.588 273.163, 1034.749 261.750 C 1034.909 250.338, 1034.909 231.663, 1034.749 220.250 C 1034.588 208.838, 1034.457 218.175, 1034.457 241 M 1176.425 221 C 1176.425 232.825, 1176.569 237.662, 1176.746 231.750 C 1176.923 225.838, 1176.923 216.162, 1176.746 210.250 C 1176.569 204.338, 1176.425 209.175, 1176.425 221 M 1167 214.980 L 1167 228.959 1146.250 229.251 L 1125.500 229.543 1146.750 229.771 L 1168 230 1168 215.500 C 1168 207.525, 1167.775 201, 1167.500 201 C 1167.225 201, 1167 207.291, 1167 214.980 M 775.451 246.500 C 775.451 266.300, 775.585 274.542, 775.748 264.815 C 775.912 255.088, 775.912 238.888, 775.749 228.815 C 775.586 218.742, 775.452 226.700, 775.451 246.500 M 38.780 240.501 C 38.626 256.176, 38.837 269.001, 39.250 269.001 C 39.663 269, 40 256.175, 40 240.500 C 40 224.825, 39.788 212, 39.530 212 C 39.271 212, 38.934 224.825, 38.780 240.501 M 752.450 247.500 C 752.451 266.750, 752.585 274.483, 752.749 264.685 C 752.913 254.888, 752.912 239.138, 752.748 229.685 C 752.584 220.233, 752.450 228.250, 752.450 247.500 M 595.304 253.747 C 601.247 253.924, 610.697 253.923, 616.304 253.745 C 621.912 253.567, 617.050 253.422, 605.500 253.423 C 593.950 253.424, 589.362 253.570, 595.304 253.747 M 1136.250 253.746 C 1142.162 253.923, 1151.838 253.923, 1157.750 253.746 C 1163.662 253.569, 1158.825 253.425, 1147 253.425 C 1135.175 253.425, 1130.338 253.569, 1136.250 253.746 M 205.287 268.740 C 208.469 268.939, 213.419 268.937, 216.287 268.736 C 219.154 268.535, 216.550 268.372, 210.500 268.374 C 204.450 268.376, 202.104 268.541, 205.287 268.740" stroke="none" fill="#640484" fill-rule="evenodd"/></svg>